<?xml version="1.0" standalone="no"?>
<!DOCTYPE svg PUBLIC "-//W3C//DTD SVG 20010904//EN"
 "http://www.w3.org/TR/2001/REC-SVG-20010904/DTD/svg10.dtd">
<svg version="1.0" xmlns="http://www.w3.org/2000/svg"
 width="289.000000pt" height="240.000000pt" viewBox="0 0 289.000000 240.000000"
 preserveAspectRatio="xMidYMid meet">
<metadata>
Created by potrace 1.15, written by Peter Selinger 2001-2017
</metadata>
<g transform="translate(0.000000,240.000000) scale(0.100000,-0.100000)"
fill="#000000" stroke="none">
<path d="M1294 2291 c-80 -13 -111 -52 -91 -113 12 -38 23 -35 37 8 18 54 19
37 3 -40 -7 -39 -13 -90 -11 -115 3 -38 7 -47 25 -49 14 -2 23 3 28 17 5 16
12 19 39 14 41 -6 66 6 89 45 l17 30 -34 21 c-37 23 -58 26 -87 11 -21 -12
-26 -40 -7 -40 6 0 3 -6 -8 -14 -24 -18 -27 -15 -19 26 4 22 16 39 35 50 20
11 32 29 40 58 11 40 6 101 -8 99 -4 -1 -26 -5 -48 -8z"/>
<path d="M1714 2285 c-10 -24 6 -35 51 -35 38 0 45 -3 50 -22 53 -235 57 -260
44 -289 -8 -21 -9 -33 -2 -40 7 -7 7 -20 0 -39 -12 -32 0 -54 33 -63 43 -11
79 50 48 81 -9 9 18 12 125 12 l137 0 -14 -22 c-27 -44 11 -86 62 -67 25 9 31
56 10 77 -9 9 -9 12 1 12 7 0 11 9 9 23 -3 22 -5 22 -170 25 -158 2 -168 4
-168 22 0 15 10 20 53 25 28 3 115 14 192 23 l140 17 0 115 0 115 -226 3
c-216 2 -227 3 -232 22 -4 17 -14 20 -71 20 -49 0 -68 -4 -72 -15z"/>
<path d="M357 2042 c-92 -92 -167 -172 -167 -178 0 -13 72 -84 86 -84 13 0
344 332 344 346 0 13 -72 84 -86 84 -5 0 -85 -75 -177 -168z"/>
<path d="M1045 1962 c-16 -11 -55 -45 -85 -76 l-54 -56 64 -65 c35 -36 67 -65
70 -65 3 0 13 13 23 29 l17 29 124 4 123 3 89 79 c94 85 112 118 64 124 -18 2
-50 -15 -109 -58 -68 -48 -92 -60 -122 -60 -21 0 -41 5 -44 10 -4 6 13 10 42
10 54 0 73 12 73 46 0 36 -7 38 -200 60 -34 4 -52 0 -75 -14z"/>
<path d="M1722 1518 c-17 -17 -17 -449 0 -466 17 -17 509 -17 526 0 17 17 17
449 0 466 -24 24 -38 13 -38 -28 0 -69 -62 -103 -118 -64 -17 12 -22 25 -22
60 l0 44 -85 0 -85 0 0 -44 c0 -35 -5 -48 -22 -60 -56 -39 -118 -5 -118 64 0
41 -14 52 -38 28z m468 -303 l0 -115 -205 0 -205 0 0 115 0 115 205 0 205 0 0
-115z"/>
<path d="M257 1458 c-27 -36 -61 -98 -55 -102 30 -22 121 -65 128 -61 4 3 25
36 46 73 39 70 71 112 87 112 5 0 -2 -9 -16 -20 -37 -29 -41 -53 -18 -99 20
-38 20 -41 3 -50 -13 -8 -6 -10 33 -11 28 0 60 -3 71 -6 18 -5 27 4 53 49 37
65 40 82 11 67 -17 -9 -23 -5 -45 29 -30 44 -57 51 -196 51 -76 0 -78 -1 -102
-32z"/>
<path d="M1095 1479 l-31 -9 3 -67 3 -68 -16 50 c-9 28 -19 54 -24 59 -13 13
-76 -30 -99 -68 -12 -19 -21 -50 -21 -74 0 -33 6 -45 31 -66 45 -38 65 -41
269 -41 204 0 224 3 269 41 26 22 31 33 31 70 0 38 -6 51 -41 89 -56 61 -79
60 -80 -2 -1 -27 -4 -39 -6 -28 -3 11 -14 41 -25 67 -21 49 -36 58 -98 58
l-36 0 3 -67 3 -68 -26 68 c-29 73 -37 77 -109 56z"/>
<path d="M110 1301 c0 -5 7 -12 15 -15 14 -5 13 -11 -5 -45 -25 -51 -25 -59 2
-88 19 -21 20 -23 4 -17 -15 6 -11 -6 19 -62 53 -96 63 -104 146 -104 l69 0 0
70 0 70 -87 1 c-59 0 -81 3 -67 9 12 5 31 24 43 43 17 27 26 34 43 29 20 -5
19 -1 -13 56 l-34 62 -67 0 c-38 0 -68 -4 -68 -9z"/>
<path d="M568 1271 l-57 -37 37 -59 c54 -85 58 -93 41 -77 -7 6 -34 12 -60 12
-42 0 -48 3 -51 23 -2 18 -9 12 -35 -35 -18 -32 -33 -62 -33 -68 0 -14 63
-110 73 -110 4 0 7 9 7 19 0 22 19 31 65 31 42 0 60 27 51 79 -4 25 -2 31 4
21 5 -8 10 -26 10 -40 0 -19 11 -7 46 54 36 62 45 85 40 108 -6 30 -62 119
-74 117 -4 0 -33 -17 -64 -38z"/>
<path d="M2540 900 c-12 -12 -20 -33 -20 -55 0 -22 8 -43 20 -55 12 -12 33
-20 55 -20 22 0 43 8 55 20 12 12 20 33 20 55 0 22 -8 43 -20 55 -12 12 -33
20 -55 20 -22 0 -43 -8 -55 -20z"/>
<path d="M170 698 c0 -33 23 -112 59 -205 30 -76 31 -85 19 -124 -9 -32 -23
-50 -57 -73 -76 -52 -91 -71 -91 -113 0 -59 23 -85 73 -81 57 4 87 48 87 127
0 39 6 66 21 90 l21 34 19 -29 c11 -18 19 -47 19 -74 0 -100 32 -150 96 -150
40 0 66 29 66 75 0 47 -20 75 -80 114 -37 24 -54 42 -66 75 -16 41 -16 45 2
87 39 91 73 209 70 241 -3 30 -8 23 -64 -87 l-62 -120 -58 118 c-32 64 -62
117 -66 117 -5 0 -8 -10 -8 -22z"/>
<path d="M710 706 c0 -8 14 -19 30 -25 17 -5 44 -19 59 -31 42 -29 108 -27
155 5 46 31 80 31 131 0 53 -33 110 -33 159 0 20 14 50 25 66 25 16 0 46 -11
66 -25 49 -33 106 -33 159 0 51 31 85 31 131 0 47 -32 113 -34 155 -5 15 12
42 26 59 31 16 6 30 17 30 25 0 24 -62 17 -100 -11 -19 -14 -47 -25 -62 -25
-16 0 -46 11 -66 25 -26 18 -50 25 -82 25 -33 0 -55 -7 -80 -25 -19 -14 -48
-25 -65 -25 -17 0 -46 11 -65 25 -25 18 -47 25 -80 25 -32 0 -56 -7 -82 -25
-20 -14 -50 -25 -66 -25 -15 0 -43 11 -62 25 -25 18 -47 25 -80 25 -32 0 -56
-7 -82 -25 -20 -14 -50 -25 -66 -25 -15 0 -43 11 -62 25 -38 28 -100 35 -100
11z"/>
</g>
</svg>
