<?xml version="1.0" standalone="no"?>
<!DOCTYPE svg PUBLIC "-//W3C//DTD SVG 20010904//EN"
 "http://www.w3.org/TR/2001/REC-SVG-20010904/DTD/svg10.dtd">
<svg version="1.0" xmlns="http://www.w3.org/2000/svg"
 width="289.000000pt" height="240.000000pt" viewBox="0 0 289.000000 240.000000"
 preserveAspectRatio="xMidYMid meet">

<g transform="translate(0.000000,240.000000) scale(0.100000,-0.100000)"
fill="#000000" stroke="none">
<path d="M1724 2286 c-10 -25 5 -36 49 -36 l42 0 29 -137 c16 -75 29 -142 28
-148 -1 -5 -5 -25 -8 -42 -4 -24 -3 -33 7 -33 10 0 10 -3 1 -12 -17 -17 -15
-53 3 -68 8 -7 25 -10 39 -6 33 8 43 42 20 67 -17 19 -15 19 132 19 106 -1
144 -4 132 -11 -36 -21 -16 -79 27 -79 12 0 26 5 33 12 17 17 15 55 -4 66 -15
8 -15 10 0 15 9 4 16 13 16 22 0 13 -25 15 -175 15 l-175 0 0 24 c0 29 -1 29
205 51 210 23 196 13 193 137 l-3 103 -225 3 c-222 2 -226 3 -235 25 -8 18
-19 22 -68 25 -44 2 -59 -1 -63 -12z"/>
<path d="M616 2268 c-9 -12 -16 -29 -16 -36 0 -12 -3 -12 -15 -2 -8 6 -19 9
-25 5 -8 -5 3 -23 31 -51 29 -29 46 -41 53 -34 7 7 6 14 -2 22 -8 8 -3 15 21
27 27 13 32 22 32 51 0 32 -3 35 -32 38 -23 2 -35 -3 -47 -20z"/>
<path d="M1272 2280 c-59 -14 -85 -54 -66 -104 9 -24 21 -19 29 11 7 30 23 53
35 53 5 0 2 -12 -5 -27 -17 -35 -38 -187 -30 -213 9 -27 29 -25 49 5 14 21 20
24 37 15 27 -15 55 -4 80 32 l22 31 -24 18 c-13 10 -38 19 -54 19 -42 0 -75
-34 -41 -42 10 -2 7 -8 -10 -21 l-24 -18 0 37 c0 30 7 44 40 74 37 34 40 41
40 88 0 57 -4 60 -78 42z"/>
<path d="M362 2037 l-172 -173 43 -42 42 -42 173 173 172 173 -43 42 -42 42
-173 -173z"/>
<path d="M1106 2101 l-28 -19 34 -37 c29 -32 39 -37 62 -31 34 8 45 35 22 52
-16 11 -16 13 5 16 22 3 22 4 5 21 -23 22 -64 22 -100 -2z"/>
<path d="M1075 1969 c-16 -4 -60 -39 -98 -76 l-67 -69 64 -63 63 -63 22 30 21
30 118 4 118 3 97 84 c53 46 97 88 97 92 0 5 -8 13 -18 18 -23 12 -43 2 -132
-62 -55 -40 -71 -47 -111 -47 -26 0 -51 5 -54 10 -4 6 13 10 43 10 37 0 54 5
68 21 29 32 8 53 -62 61 -32 3 -72 11 -87 17 -32 13 -41 13 -82 0z"/>
<path d="M165 1840 c-4 -6 -2 -17 4 -24 8 -9 2 -16 -24 -29 -28 -14 -35 -22
-35 -46 0 -63 80 -59 96 4 5 21 9 23 21 14 9 -8 17 -9 23 -3 6 6 -6 26 -34 53
-28 28 -46 39 -51 31z"/>
<path d="M1796 1575 c-3 -9 -6 -38 -6 -65 0 -55 17 -75 55 -66 25 6 26 9 23
74 l-3 67 -31 3 c-22 2 -33 -2 -38 -13z"/>
<path d="M2104 1576 c-3 -7 -4 -40 -2 -72 3 -58 3 -59 33 -59 l30 0 3 73 3 72
-31 0 c-17 0 -33 -6 -36 -14z"/>
<path d="M1727 1512 c-25 -27 -25 -432 -1 -456 23 -24 495 -24 518 0 14 13 16
48 16 228 0 194 -2 214 -18 229 -28 25 -32 21 -32 -27 0 -57 -19 -76 -74 -76
-54 0 -66 13 -66 72 l0 48 -85 0 -85 0 0 -48 c0 -59 -12 -72 -66 -72 -55 0
-74 19 -74 76 0 48 -8 54 -33 26z m458 -297 l0 -120 -200 0 -200 0 -3 109 c-1
61 0 116 2 123 4 11 46 13 203 11 l198 -3 0 -120z"/>
<path d="M1840 1266 c0 -35 1 -36 36 -36 34 0 35 1 32 33 -3 28 -7 32 -35 35
-32 3 -33 2 -33 -32z"/>
<path d="M1950 1265 c0 -33 2 -35 35 -35 33 0 35 2 35 35 0 33 -2 35 -35 35
-33 0 -35 -2 -35 -35z"/>
<path d="M2067 1293 c-4 -3 -7 -19 -7 -35 0 -25 3 -28 35 -28 33 0 35 2 35 35
0 32 -3 35 -28 35 -16 0 -32 -3 -35 -7z"/>
<path d="M1840 1154 c0 -34 1 -35 33 -32 28 3 32 7 35 36 3 31 2 32 -32 32
-35 0 -36 -1 -36 -36z"/>
<path d="M1950 1155 c0 -33 2 -35 35 -35 33 0 35 2 35 35 0 33 -2 35 -35 35
-33 0 -35 -2 -35 -35z"/>
<path d="M2062 1158 c3 -29 7 -33 36 -36 31 -3 32 -2 32 32 0 35 -1 36 -36 36
-34 0 -35 -1 -32 -32z"/>
<path d="M265 1458 c-29 -34 -62 -95 -54 -101 2 -2 29 -17 60 -35 l56 -31 48
85 c26 46 57 91 68 99 20 14 14 15 -65 15 -85 0 -87 -1 -113 -32z"/>
<path d="M1155 1484 c-5 -1 -27 -5 -47 -9 l-38 -6 -1 -67 0 -67 -20 53 c-11
28 -25 52 -31 52 -19 0 -78 -50 -93 -80 -34 -66 -12 -118 62 -147 40 -15 77
-18 223 -18 146 0 183 3 223 18 77 30 98 86 58 151 -23 37 -77 79 -91 71 -6
-3 -10 -27 -11 -53 l0 -47 -24 64 c-13 35 -27 67 -32 71 -4 5 -30 12 -57 15
l-48 8 7 -71 c4 -39 3 -72 -2 -75 -5 -3 -19 25 -32 63 -22 70 -28 80 -46 74z"/>
<path d="M443 1445 l-35 -35 25 -45 c23 -41 24 -46 9 -55 -12 -7 2 -9 51 -7
l68 2 31 53 30 53 -26 -7 c-15 -3 -26 -2 -26 4 0 17 -57 72 -75 72 -9 0 -33
-16 -52 -35z"/>
<path d="M120 1301 c0 -5 6 -11 13 -14 9 -3 8 -13 -5 -41 -35 -72 -12 -116 62
-116 30 0 38 5 55 36 13 25 24 34 37 31 24 -7 23 -1 -12 61 l-30 52 -60 0
c-33 0 -60 -4 -60 -9z"/>
<path d="M575 1269 c-27 -18 -52 -33 -53 -35 -2 -1 19 -40 47 -85 28 -46 51
-95 51 -109 0 -19 11 -7 46 53 35 60 43 83 37 100 -14 39 -58 107 -68 107 -5
0 -32 -14 -60 -31z"/>
<path d="M443 1088 l-33 -57 31 -50 c30 -48 49 -58 49 -25 0 10 12 14 40 14
27 0 47 7 60 20 24 24 25 41 4 86 -15 32 -20 34 -64 34 -38 0 -49 4 -52 17 -2
12 -14 -1 -35 -39z"/>
<path d="M150 1074 c50 -90 69 -104 146 -104 l64 0 0 69 0 70 -102 3 c-57 2
-111 7 -121 12 -15 7 -12 -3 13 -50z"/>
<path d="M2545 895 c-14 -13 -25 -36 -25 -50 0 -33 42 -75 75 -75 33 0 75 42
75 75 0 33 -42 75 -75 75 -14 0 -37 -11 -50 -25z m95 -5 c40 -40 11 -110 -45
-110 -32 0 -65 33 -65 65 0 32 33 65 65 65 14 0 34 -9 45 -20z"/>
<path d="M2605 850 c-14 -15 -21 -17 -32 -9 -7 6 -13 9 -13 6 0 -2 6 -10 13
-16 11 -8 19 -5 37 14 13 14 21 25 18 25 -3 0 -13 -9 -23 -20z"/>
<path d="M175 678 c7 -42 37 -133 72 -223 17 -41 18 -55 9 -80 -17 -47 -27
-59 -88 -103 -46 -34 -58 -49 -64 -78 -13 -68 48 -115 102 -79 34 22 54 73 54
137 0 37 6 61 20 78 17 23 20 24 35 9 20 -19 34 -78 35 -137 0 -35 6 -50 29
-73 16 -16 40 -29 53 -29 34 0 68 39 68 79 0 35 -26 66 -103 124 -23 17 -40
41 -48 66 -11 36 -9 48 30 150 23 61 44 133 47 159 5 45 2 41 -59 -78 l-64
-125 -62 123 c-34 67 -64 122 -67 122 -3 0 -3 -19 1 -42z m46 -462 c9 -18 8
-31 -3 -52 -24 -51 -88 -40 -88 14 0 56 70 85 91 38z m239 5 c16 -31 12 -79
-8 -90 -18 -10 -50 2 -64 23 -10 14 -10 70 -1 79 14 15 63 7 73 -12z"/>
<path d="M717 713 c-13 -12 -7 -23 12 -23 10 0 36 -12 57 -26 60 -41 109 -42
164 -5 56 38 72 38 135 1 64 -38 100 -38 156 0 24 16 55 30 69 30 14 0 45 -14
69 -30 56 -38 92 -38 156 0 63 37 79 37 135 -1 55 -37 104 -36 164 5 21 14 47
26 57 26 24 0 25 18 2 27 -10 4 -40 -6 -74 -25 -32 -18 -65 -32 -75 -32 -9 0
-39 14 -66 31 -58 38 -102 36 -162 -5 -49 -33 -72 -33 -121 1 -55 38 -115 38
-170 0 -49 -34 -72 -34 -121 -1 -60 41 -104 43 -162 5 -27 -17 -57 -31 -68
-31 -10 0 -41 14 -69 30 -50 29 -75 36 -88 23z"/>
</g>
</svg>
